<mxfile host="Electron" agent="Mozilla/5.0 (X11; Linux x86_64) AppleWebKit/537.36 (KHTML, like Gecko) draw.io/25.0.1 Chrome/128.0.6613.186 Electron/32.2.6 Safari/537.36" version="25.0.1">
  <diagram name="Page-1" id="EDb15m_iipKS8MgpZX-y">
    <mxGraphModel dx="2798" dy="797" grid="1" gridSize="10" guides="1" tooltips="1" connect="1" arrows="1" fold="1" page="1" pageScale="1" pageWidth="850" pageHeight="1100" math="0" shadow="0">
      <root>
        <mxCell id="0" />
        <mxCell id="1" parent="0" />
        <mxCell id="PoKpd2AdswaSUjWnKrv7-1" value="Metadata&lt;br&gt;DB" style="shape=cylinder3;whiteSpace=wrap;html=1;boundedLbl=1;backgroundOutline=1;size=15;" parent="1" vertex="1">
          <mxGeometry x="-855" y="370" width="60" height="80" as="geometry" />
        </mxCell>
        <mxCell id="PoKpd2AdswaSUjWnKrv7-3" value="Telegram" style="rounded=0;whiteSpace=wrap;html=1;" parent="1" vertex="1">
          <mxGeometry x="-1275" y="460" width="120" height="60" as="geometry" />
        </mxCell>
        <mxCell id="PoKpd2AdswaSUjWnKrv7-6" value="Aggregation Channel" style="shape=cylinder3;whiteSpace=wrap;html=1;boundedLbl=1;backgroundOutline=1;size=15;" parent="1" vertex="1">
          <mxGeometry x="-865" y="560" width="80" height="80" as="geometry" />
        </mxCell>
        <mxCell id="PoKpd2AdswaSUjWnKrv7-7" value="Telegram Agent" style="rounded=0;whiteSpace=wrap;html=1;" parent="1" vertex="1">
          <mxGeometry x="-1115" y="460" width="120" height="60" as="geometry" />
        </mxCell>
        <mxCell id="PoKpd2AdswaSUjWnKrv7-8" value="" style="endArrow=classic;html=1;rounded=0;exitX=1;exitY=0.5;exitDx=0;exitDy=0;" parent="1" source="PoKpd2AdswaSUjWnKrv7-3" edge="1">
          <mxGeometry width="50" height="50" relative="1" as="geometry">
            <mxPoint x="-855" y="540" as="sourcePoint" />
            <mxPoint x="-1115" y="490" as="targetPoint" />
          </mxGeometry>
        </mxCell>
        <mxCell id="PoKpd2AdswaSUjWnKrv7-12" value="" style="group" parent="1" vertex="1" connectable="0">
          <mxGeometry x="-975" y="505" width="60" height="95" as="geometry" />
        </mxCell>
        <mxCell id="PoKpd2AdswaSUjWnKrv7-10" value="" style="endArrow=classic;html=1;rounded=0;exitX=1;exitY=0.75;exitDx=0;exitDy=0;entryX=0;entryY=0.5;entryDx=0;entryDy=0;entryPerimeter=0;" parent="PoKpd2AdswaSUjWnKrv7-12" source="PoKpd2AdswaSUjWnKrv7-7" target="PoKpd2AdswaSUjWnKrv7-6" edge="1">
          <mxGeometry width="50" height="50" relative="1" as="geometry">
            <mxPoint x="120" y="35" as="sourcePoint" />
            <mxPoint x="170" y="-15" as="targetPoint" />
            <Array as="points">
              <mxPoint />
              <mxPoint y="95" />
            </Array>
          </mxGeometry>
        </mxCell>
        <mxCell id="PoKpd2AdswaSUjWnKrv7-11" value="FWD post" style="text;html=1;align=center;verticalAlign=middle;whiteSpace=wrap;rounded=0;" parent="PoKpd2AdswaSUjWnKrv7-12" vertex="1">
          <mxGeometry y="65" width="60" height="30" as="geometry" />
        </mxCell>
        <mxCell id="PoKpd2AdswaSUjWnKrv7-15" value="" style="group" parent="1" vertex="1" connectable="0">
          <mxGeometry x="-1025" y="380" width="150" height="102" as="geometry" />
        </mxCell>
        <mxCell id="PoKpd2AdswaSUjWnKrv7-13" value="" style="endArrow=classic;startArrow=classic;html=1;rounded=0;exitX=1.01;exitY=0.367;exitDx=0;exitDy=0;exitPerimeter=0;entryX=-0.036;entryY=0.577;entryDx=0;entryDy=0;entryPerimeter=0;" parent="PoKpd2AdswaSUjWnKrv7-15" source="PoKpd2AdswaSUjWnKrv7-7" target="PoKpd2AdswaSUjWnKrv7-1" edge="1">
          <mxGeometry width="50" height="50" relative="1" as="geometry">
            <mxPoint x="170" y="160" as="sourcePoint" />
            <mxPoint x="220" y="110" as="targetPoint" />
            <Array as="points">
              <mxPoint x="50" y="102" />
              <mxPoint x="50" y="36" />
            </Array>
          </mxGeometry>
        </mxCell>
        <mxCell id="PoKpd2AdswaSUjWnKrv7-14" value="Check that post is uniq and save it&#39;s metadata" style="text;html=1;align=center;verticalAlign=middle;whiteSpace=wrap;rounded=0;" parent="PoKpd2AdswaSUjWnKrv7-15" vertex="1">
          <mxGeometry width="150" height="30" as="geometry" />
        </mxCell>
        <mxCell id="PoKpd2AdswaSUjWnKrv7-16" value="Bot" style="rounded=0;whiteSpace=wrap;html=1;" parent="1" vertex="1">
          <mxGeometry x="-715" y="460" width="120" height="60" as="geometry" />
        </mxCell>
        <mxCell id="PoKpd2AdswaSUjWnKrv7-17" value="User" style="rounded=0;whiteSpace=wrap;html=1;" parent="1" vertex="1">
          <mxGeometry x="-530" y="460" width="120" height="60" as="geometry" />
        </mxCell>
        <mxCell id="PoKpd2AdswaSUjWnKrv7-18" value="" style="endArrow=classic;startArrow=classic;html=1;rounded=0;entryX=0;entryY=0.5;entryDx=0;entryDy=0;exitX=1;exitY=0.5;exitDx=0;exitDy=0;" parent="1" source="PoKpd2AdswaSUjWnKrv7-16" target="PoKpd2AdswaSUjWnKrv7-17" edge="1">
          <mxGeometry width="50" height="50" relative="1" as="geometry">
            <mxPoint x="-855" y="540" as="sourcePoint" />
            <mxPoint x="-805" y="490" as="targetPoint" />
          </mxGeometry>
        </mxCell>
        <mxCell id="PoKpd2AdswaSUjWnKrv7-20" value="" style="endArrow=classic;startArrow=classic;html=1;rounded=0;entryX=1;entryY=0.5;entryDx=0;entryDy=0;entryPerimeter=0;exitX=0;exitY=0.25;exitDx=0;exitDy=0;" parent="1" source="PoKpd2AdswaSUjWnKrv7-16" target="PoKpd2AdswaSUjWnKrv7-1" edge="1">
          <mxGeometry width="50" height="50" relative="1" as="geometry">
            <mxPoint x="-855" y="540" as="sourcePoint" />
            <mxPoint x="-805" y="490" as="targetPoint" />
            <Array as="points">
              <mxPoint x="-765" y="475" />
              <mxPoint x="-765" y="410" />
            </Array>
          </mxGeometry>
        </mxCell>
        <mxCell id="PoKpd2AdswaSUjWnKrv7-21" value="" style="endArrow=classic;html=1;rounded=0;exitX=1;exitY=0.5;exitDx=0;exitDy=0;exitPerimeter=0;" parent="1" source="PoKpd2AdswaSUjWnKrv7-6" edge="1">
          <mxGeometry width="50" height="50" relative="1" as="geometry">
            <mxPoint x="-765" y="550" as="sourcePoint" />
            <mxPoint x="-715" y="500" as="targetPoint" />
            <Array as="points">
              <mxPoint x="-765" y="600" />
              <mxPoint x="-765" y="500" />
            </Array>
          </mxGeometry>
        </mxCell>
        <mxCell id="2ya5DEiCYAqtR9HMQeks-2" value="" style="rounded=1;whiteSpace=wrap;html=1;fillColor=none;dashed=1;dashPattern=12 12;" vertex="1" parent="1">
          <mxGeometry x="-1140" y="315" width="580" height="350" as="geometry" />
        </mxCell>
      </root>
    </mxGraphModel>
  </diagram>
</mxfile>
